<svg xmlns="http://www.w3.org/2000/svg" viewBox="0 0 600 400" width="600" height="400">
  <defs>
    <linearGradient id="bg" x1="0%" y1="0%" x2="100%" y2="100%">
      <stop offset="0%" style="stop-color:#A0724A"/>
      <stop offset="50%" style="stop-color:#8D6040"/>
      <stop offset="100%" style="stop-color:#6B4830"/>
    </linearGradient>
    <linearGradient id="accent" x1="0%" y1="0%" x2="0%" y2="100%">
      <stop offset="0%" style="stop-color:#F5E6D3"/>
      <stop offset="100%" style="stop-color:#DCC4A8"/>
    </linearGradient>
    <linearGradient id="icon" x1="0%" y1="0%" x2="0%" y2="100%">
      <stop offset="0%" style="stop-color:#F5E6D3;stop-opacity:0.9"/>
      <stop offset="100%" style="stop-color:#DCC4A8;stop-opacity:0.75"/>
    </linearGradient>
  </defs>
  <rect width="600" height="400" fill="url(#bg)"/>
  <circle cx="250" cy="150" r="170" fill="#F5E6D3" opacity="0.05"/>
  <circle cx="450" cy="300" r="130" fill="#F5E6D3" opacity="0.03"/>
  <rect x="15" y="15" width="570" height="370" rx="8" fill="none" stroke="url(#accent)" stroke-width="2" opacity="0.6"/>
  <rect x="22" y="22" width="556" height="356" rx="5" fill="none" stroke="url(#accent)" stroke-width="0.5" opacity="0.4"/>
  <path d="M30,45 L30,30 L45,30" fill="none" stroke="#F5E6D3" stroke-width="2.5" stroke-linecap="round"/>
  <path d="M570,45 L570,30 L555,30" fill="none" stroke="#F5E6D3" stroke-width="2.5" stroke-linecap="round"/>
  <path d="M30,355 L30,370 L45,370" fill="none" stroke="#F5E6D3" stroke-width="2.5" stroke-linecap="round"/>
  <path d="M570,355 L570,370 L555,370" fill="none" stroke="#F5E6D3" stroke-width="2.5" stroke-linecap="round"/>
  <g transform="translate(300, 155)">
    <!-- Pork chop shape -->
    <path d="M-50,-20 Q-60,-40 -35,-45 Q-10,-50 15,-40 Q45,-35 55,-15 Q65,10 50,30 Q35,50 5,50 Q-25,48 -45,30 Q-60,15 -50,-20 Z" fill="url(#icon)" opacity="0.85"/>
    <!-- Bone -->
    <g transform="translate(-40, -30) rotate(-40)">
      <rect x="-3" y="-35" width="6" height="35" rx="3" fill="#6B4830" opacity="0.5"/>
      <circle cx="0" cy="-38" r="6" fill="#6B4830" opacity="0.4"/>
    </g>
    <!-- Fat marbling lines -->
    <path d="M-20,-15 Q-5,-20 10,-10" fill="none" stroke="#A0724A" stroke-width="1.5" opacity="0.3" stroke-linecap="round"/>
    <path d="M-15,0 Q5,-5 20,5" fill="none" stroke="#A0724A" stroke-width="1.5" opacity="0.25" stroke-linecap="round"/>
    <path d="M-10,15 Q10,10 25,20" fill="none" stroke="#A0724A" stroke-width="1.5" opacity="0.2" stroke-linecap="round"/>
    <!-- Rosemary garnish -->
    <g transform="translate(50, 30) rotate(-20)">
      <line x1="0" y1="0" x2="35" y2="0" stroke="#5B7A3A" stroke-width="1.5" opacity="0.6"/>
      <ellipse cx="8" cy="-3" rx="5" ry="2" fill="#6B8E3A" opacity="0.5" transform="rotate(-15)"/>
      <ellipse cx="16" cy="-4" rx="5" ry="2" fill="#81C784" opacity="0.5" transform="rotate(-20)"/>
      <ellipse cx="24" cy="-3" rx="5" ry="2" fill="#6B8E3A" opacity="0.5" transform="rotate(-15)"/>
      <ellipse cx="8" cy="3" rx="5" ry="2" fill="#81C784" opacity="0.4" transform="rotate(15)"/>
      <ellipse cx="16" cy="4" rx="5" ry="2" fill="#6B8E3A" opacity="0.4" transform="rotate(20)"/>
      <ellipse cx="24" cy="3" rx="5" ry="2" fill="#81C784" opacity="0.4" transform="rotate(15)"/>
    </g>
    <!-- Steam -->
    <path d="M-10,-50 Q-15,-65 -5,-75" fill="none" stroke="#F5E6D3" stroke-width="1.5" opacity="0.25" stroke-linecap="round"/>
    <path d="M10,-48 Q5,-63 15,-73" fill="none" stroke="#F5E6D3" stroke-width="1.5" opacity="0.2" stroke-linecap="round"/>
  </g>
  <line x1="170" y1="248" x2="430" y2="248" stroke="#F5E6D3" stroke-width="1" opacity="0.5"/>
  <circle cx="300" cy="248" r="3" fill="#F5E6D3" opacity="0.7"/>
  <circle cx="170" cy="248" r="2" fill="#F5E6D3" opacity="0.5"/>
  <circle cx="430" cy="248" r="2" fill="#F5E6D3" opacity="0.5"/>
  <text x="300" y="293" text-anchor="middle" font-family="Georgia,serif" font-size="42" font-weight="bold" fill="#F5E6D3" letter-spacing="3">PORK</text>
  <text x="300" y="325" text-anchor="middle" font-family="Georgia,serif" font-size="16" fill="#DCC4A8" letter-spacing="6" font-style="italic" opacity="0.85">RECIPES</text>
  <line x1="230" y1="348" x2="270" y2="348" stroke="#F5E6D3" stroke-width="0.8" opacity="0.5"/>
  <line x1="330" y1="348" x2="370" y2="348" stroke="#F5E6D3" stroke-width="0.8" opacity="0.5"/>
</svg>