<svg xmlns="http://www.w3.org/2000/svg" viewBox="0 0 600 400" width="600" height="400">
  <defs>
    <linearGradient id="bg" x1="0%" y1="0%" x2="100%" y2="100%">
      <stop offset="0%" style="stop-color:#4A7C59"/>
      <stop offset="50%" style="stop-color:#3A6B48"/>
      <stop offset="100%" style="stop-color:#2D5A3A"/>
    </linearGradient>
    <linearGradient id="accent" x1="0%" y1="0%" x2="0%" y2="100%">
      <stop offset="0%" style="stop-color:#E8F5E9"/>
      <stop offset="100%" style="stop-color:#C8E6C9"/>
    </linearGradient>
    <linearGradient id="bowl" x1="0%" y1="0%" x2="0%" y2="100%">
      <stop offset="0%" style="stop-color:#E8F5E9;stop-opacity:0.9"/>
      <stop offset="100%" style="stop-color:#C8E6C9;stop-opacity:0.75"/>
    </linearGradient>
  </defs>
  <rect width="600" height="400" fill="url(#bg)"/>
  <circle cx="300" cy="155" r="160" fill="#E8F5E9" opacity="0.05"/>
  <circle cx="450" cy="300" r="120" fill="#E8F5E9" opacity="0.03"/>
  <rect x="15" y="15" width="570" height="370" rx="8" fill="none" stroke="url(#accent)" stroke-width="2" opacity="0.6"/>
  <rect x="22" y="22" width="556" height="356" rx="5" fill="none" stroke="url(#accent)" stroke-width="0.5" opacity="0.4"/>
  <path d="M30,45 L30,30 L45,30" fill="none" stroke="#E8F5E9" stroke-width="2.5" stroke-linecap="round"/>
  <path d="M570,45 L570,30 L555,30" fill="none" stroke="#E8F5E9" stroke-width="2.5" stroke-linecap="round"/>
  <path d="M30,355 L30,370 L45,370" fill="none" stroke="#E8F5E9" stroke-width="2.5" stroke-linecap="round"/>
  <path d="M570,355 L570,370 L555,370" fill="none" stroke="#E8F5E9" stroke-width="2.5" stroke-linecap="round"/>
  <g transform="translate(300, 155)">
    <path d="M-65,0 Q-70,45 -30,55 Q0,60 30,55 Q70,45 65,0 Z" fill="url(#bowl)" opacity="0.85"/>
    <ellipse cx="0" cy="0" rx="65" ry="18" fill="url(#bowl)" opacity="0.9"/>
    <ellipse cx="0" cy="-2" rx="50" ry="12" fill="#4A7C59" opacity="0.2"/>
    <path d="M-20,-5 Q-15,-12 -5,-8" fill="none" stroke="#2D5A3A" stroke-width="1" opacity="0.3" stroke-linecap="round"/>
    <path d="M10,-7 Q18,-14 25,-6" fill="none" stroke="#2D5A3A" stroke-width="1" opacity="0.3" stroke-linecap="round"/>
    <circle cx="-10" cy="-3" r="2" fill="#81C784" opacity="0.4"/>
    <circle cx="8" cy="-5" r="1.5" fill="#81C784" opacity="0.4"/>
    <circle cx="20" cy="-2" r="1.5" fill="#A5D6A7" opacity="0.3"/>
    <g transform="translate(-50, -30) rotate(20)">
      <line x1="0" y1="0" x2="35" y2="0" stroke="#C8E6C9" stroke-width="1.5" opacity="0.5"/>
      <ellipse cx="8" cy="-4" rx="5" ry="3" fill="#81C784" opacity="0.5" transform="rotate(-15)"/>
      <ellipse cx="16" cy="-5" rx="5" ry="3" fill="#66BB6A" opacity="0.5" transform="rotate(-20)"/>
      <ellipse cx="24" cy="-4" rx="5" ry="3" fill="#81C784" opacity="0.5" transform="rotate(-15)"/>
      <ellipse cx="8" cy="4" rx="5" ry="3" fill="#66BB6A" opacity="0.4" transform="rotate(15)"/>
      <ellipse cx="16" cy="5" rx="5" ry="3" fill="#81C784" opacity="0.4" transform="rotate(20)"/>
    </g>
    <g transform="translate(50, -35) rotate(-15)">
      <line x1="0" y1="0" x2="30" y2="0" stroke="#C8E6C9" stroke-width="1.5" opacity="0.5"/>
      <ellipse cx="8" cy="-4" rx="5" ry="3" fill="#81C784" opacity="0.5" transform="rotate(-15)"/>
      <ellipse cx="16" cy="-5" rx="5" ry="3" fill="#66BB6A" opacity="0.5" transform="rotate(-20)"/>
      <ellipse cx="24" cy="-3" rx="4" ry="2.5" fill="#81C784" opacity="0.4" transform="rotate(-10)"/>
      <ellipse cx="8" cy="4" rx="5" ry="3" fill="#66BB6A" opacity="0.4" transform="rotate(15)"/>
      <ellipse cx="16" cy="5" rx="5" ry="3" fill="#81C784" opacity="0.4" transform="rotate(20)"/>
    </g>
  </g>
  <line x1="150" y1="248" x2="450" y2="248" stroke="#E8F5E9" stroke-width="1" opacity="0.5"/>
  <circle cx="300" cy="248" r="3" fill="#E8F5E9" opacity="0.7"/>
  <circle cx="150" cy="248" r="2" fill="#E8F5E9" opacity="0.5"/>
  <circle cx="450" cy="248" r="2" fill="#E8F5E9" opacity="0.5"/>
  <text x="300" y="292" text-anchor="middle" font-family="Georgia,serif" font-size="42" font-weight="bold" fill="#E8F5E9" letter-spacing="2">DIPS</text>
  <text x="300" y="325" text-anchor="middle" font-family="Georgia,serif" font-size="16" fill="#C8E6C9" letter-spacing="6" font-style="italic" opacity="0.85">&amp; SAUCES</text>
  <line x1="230" y1="348" x2="270" y2="348" stroke="#E8F5E9" stroke-width="0.8" opacity="0.5"/>
  <line x1="330" y1="348" x2="370" y2="348" stroke="#E8F5E9" stroke-width="0.8" opacity="0.5"/>
</svg>