<svg xmlns="http://www.w3.org/2000/svg" viewBox="0 0 600 400" width="600" height="400">
  <defs>
    <linearGradient id="bg" x1="0%" y1="0%" x2="100%" y2="100%">
      <stop offset="0%" style="stop-color:#C8872E"/>
      <stop offset="50%" style="stop-color:#A0692A"/>
      <stop offset="100%" style="stop-color:#7A4E1D"/>
    </linearGradient>
    <linearGradient id="accent" x1="0%" y1="0%" x2="0%" y2="100%">
      <stop offset="0%" style="stop-color:#FFECD2"/>
      <stop offset="100%" style="stop-color:#E8C9A0"/>
    </linearGradient>
    <linearGradient id="icon" x1="0%" y1="0%" x2="0%" y2="100%">
      <stop offset="0%" style="stop-color:#FFECD2;stop-opacity:0.9"/>
      <stop offset="100%" style="stop-color:#E8C9A0;stop-opacity:0.75"/>
    </linearGradient>
  </defs>
  <rect width="600" height="400" fill="url(#bg)"/>
  <circle cx="300" cy="160" r="150" fill="#FFECD2" opacity="0.06"/>
  <rect x="15" y="15" width="570" height="370" rx="8" fill="none" stroke="url(#accent)" stroke-width="2" opacity="0.6"/>
  <rect x="22" y="22" width="556" height="356" rx="5" fill="none" stroke="url(#accent)" stroke-width="0.5" opacity="0.4"/>
  <path d="M30,45 L30,30 L45,30" fill="none" stroke="#FFECD2" stroke-width="2.5" stroke-linecap="round"/>
  <path d="M570,45 L570,30 L555,30" fill="none" stroke="#FFECD2" stroke-width="2.5" stroke-linecap="round"/>
  <path d="M30,355 L30,370 L45,370" fill="none" stroke="#FFECD2" stroke-width="2.5" stroke-linecap="round"/>
  <path d="M570,355 L570,370 L555,370" fill="none" stroke="#FFECD2" stroke-width="2.5" stroke-linecap="round"/>
  <g transform="translate(300, 155)">
    <ellipse cx="0" cy="10" rx="60" ry="45" fill="url(#icon)" opacity="0.85"/>
    <path d="M-40,30 Q-65,50 -55,65 Q-50,72 -42,65 Q-35,55 -30,35" fill="url(#icon)" opacity="0.8"/>
    <path d="M40,30 Q65,50 55,65 Q50,72 42,65 Q35,55 30,35" fill="url(#icon)" opacity="0.8"/>
    <ellipse cx="0" cy="5" rx="35" ry="25" fill="#C8872E" opacity="0.15"/>
    <ellipse cx="0" cy="52" rx="80" ry="12" fill="#FFECD2" opacity="0.3"/>
    <ellipse cx="0" cy="52" rx="80" ry="12" fill="none" stroke="#E8C9A0" stroke-width="1.5" opacity="0.4"/>
    <g transform="translate(45, 35)">
      <ellipse cx="0" cy="0" rx="8" ry="4" fill="#6B8E3A" opacity="0.6" transform="rotate(-30)"/>
      <ellipse cx="8" cy="-3" rx="7" ry="3.5" fill="#5B7A3A" opacity="0.5" transform="rotate(-40)"/>
    </g>
    <path d="M-15,-40 Q-20,-55 -10,-65" fill="none" stroke="#FFECD2" stroke-width="1.5" opacity="0.3" stroke-linecap="round"/>
    <path d="M5,-45 Q0,-60 10,-70" fill="none" stroke="#FFECD2" stroke-width="1.5" opacity="0.25" stroke-linecap="round"/>
    <path d="M20,-38 Q15,-53 25,-63" fill="none" stroke="#FFECD2" stroke-width="1.5" opacity="0.2" stroke-linecap="round"/>
  </g>
  <line x1="170" y1="248" x2="430" y2="248" stroke="#FFECD2" stroke-width="1" opacity="0.5"/>
  <circle cx="300" cy="248" r="3" fill="#FFECD2" opacity="0.7"/>
  <circle cx="170" cy="248" r="2" fill="#FFECD2" opacity="0.5"/>
  <circle cx="430" cy="248" r="2" fill="#FFECD2" opacity="0.5"/>
  <text x="300" y="293" text-anchor="middle" font-family="Georgia,serif" font-size="42" font-weight="bold" fill="#FFECD2" letter-spacing="3">CHICKEN</text>
  <text x="300" y="325" text-anchor="middle" font-family="Georgia,serif" font-size="16" fill="#E8C9A0" letter-spacing="6" font-style="italic" opacity="0.8">RECIPES</text>
  <line x1="230" y1="348" x2="270" y2="348" stroke="#FFECD2" stroke-width="0.8" opacity="0.5"/>
  <line x1="330" y1="348" x2="370" y2="348" stroke="#FFECD2" stroke-width="0.8" opacity="0.5"/>
</svg>