<svg xmlns="http://www.w3.org/2000/svg" viewBox="0 0 600 400" width="600" height="400">
  <defs>
    <linearGradient id="bg" x1="0%" y1="0%" x2="100%" y2="100%">
      <stop offset="0%" style="stop-color:#E8A838"/>
      <stop offset="50%" style="stop-color:#D4882A"/>
      <stop offset="100%" style="stop-color:#B8691E"/>
    </linearGradient>
    <linearGradient id="accent" x1="0%" y1="0%" x2="0%" y2="100%">
      <stop offset="0%" style="stop-color:#FFF8E7"/>
      <stop offset="100%" style="stop-color:#F5DEB3"/>
    </linearGradient>
    <linearGradient id="bread" x1="0%" y1="0%" x2="0%" y2="100%">
      <stop offset="0%" style="stop-color:#FFF8E7;stop-opacity:0.9"/>
      <stop offset="100%" style="stop-color:#F5DEB3;stop-opacity:0.75"/>
    </linearGradient>
  </defs>
  <rect width="600" height="400" fill="url(#bg)"/>
  <circle cx="300" cy="150" r="180" fill="#FFE4A0" opacity="0.08"/>
  <circle cx="300" cy="150" r="120" fill="#FFF4CC" opacity="0.05"/>
  <rect x="15" y="15" width="570" height="370" rx="8" fill="none" stroke="url(#accent)" stroke-width="2" opacity="0.7"/>
  <rect x="22" y="22" width="556" height="356" rx="5" fill="none" stroke="url(#accent)" stroke-width="0.5" opacity="0.5"/>
  <path d="M30,45 L30,30 L45,30" fill="none" stroke="#FFF8E7" stroke-width="2.5" stroke-linecap="round"/>
  <path d="M570,45 L570,30 L555,30" fill="none" stroke="#FFF8E7" stroke-width="2.5" stroke-linecap="round"/>
  <path d="M30,355 L30,370 L45,370" fill="none" stroke="#FFF8E7" stroke-width="2.5" stroke-linecap="round"/>
  <path d="M570,355 L570,370 L555,370" fill="none" stroke="#FFF8E7" stroke-width="2.5" stroke-linecap="round"/>
  <g transform="translate(300, 155)" opacity="0.15">
    <line x1="0" y1="-60" x2="0" y2="-110" stroke="#FFF8E7" stroke-width="2"/>
    <line x1="40" y1="-45" x2="70" y2="-85" stroke="#FFF8E7" stroke-width="2"/>
    <line x1="-40" y1="-45" x2="-70" y2="-85" stroke="#FFF8E7" stroke-width="2"/>
    <line x1="55" y1="-15" x2="100" y2="-40" stroke="#FFF8E7" stroke-width="2"/>
    <line x1="-55" y1="-15" x2="-100" y2="-40" stroke="#FFF8E7" stroke-width="2"/>
  </g>
  <g transform="translate(300, 160)">
    <path d="M-55,25 Q-55,-30 -20,-35 Q0,-50 20,-35 Q55,-30 55,25 Z" fill="url(#bread)" opacity="0.85"/>
    <path d="M-20,-15 Q-5,-25 10,-15" fill="none" stroke="#D4882A" stroke-width="1.5" opacity="0.4"/>
    <path d="M-10,-5 Q5,-15 20,-5" fill="none" stroke="#D4882A" stroke-width="1.5" opacity="0.4"/>
    <g transform="translate(70, -5)">
      <ellipse cx="0" cy="0" rx="20" ry="28" fill="url(#bread)" opacity="0.75" transform="rotate(10)"/>
      <ellipse cx="0" cy="0" rx="12" ry="18" fill="#D4882A" opacity="0.15" transform="rotate(10)"/>
    </g>
    <g transform="translate(-75, 0) rotate(-15)">
      <line x1="0" y1="20" x2="0" y2="-40" stroke="#F5DEB3" stroke-width="1.5" opacity="0.7"/>
      <ellipse cx="-4" cy="-25" rx="4" ry="8" fill="#F5DEB3" opacity="0.5" transform="rotate(15, -4, -25)"/>
      <ellipse cx="4" cy="-30" rx="4" ry="8" fill="#F5DEB3" opacity="0.5" transform="rotate(-15, 4, -30)"/>
      <ellipse cx="-4" cy="-35" rx="4" ry="8" fill="#F5DEB3" opacity="0.5" transform="rotate(15, -4, -35)"/>
      <ellipse cx="4" cy="-40" rx="3" ry="6" fill="#F5DEB3" opacity="0.5" transform="rotate(-15, 4, -40)"/>
    </g>
    <path d="M-15,-45 Q-20,-60 -10,-70" fill="none" stroke="#FFF8E7" stroke-width="1.5" opacity="0.3" stroke-linecap="round"/>
    <path d="M5,-50 Q0,-65 10,-75" fill="none" stroke="#FFF8E7" stroke-width="1.5" opacity="0.3" stroke-linecap="round"/>
    <path d="M25,-42 Q20,-57 30,-67" fill="none" stroke="#FFF8E7" stroke-width="1.5" opacity="0.25" stroke-linecap="round"/>
  </g>
  <line x1="150" y1="245" x2="450" y2="245" stroke="#FFF8E7" stroke-width="1" opacity="0.5"/>
  <circle cx="300" cy="245" r="3" fill="#FFF8E7" opacity="0.7"/>
  <circle cx="150" cy="245" r="2" fill="#FFF8E7" opacity="0.5"/>
  <circle cx="450" cy="245" r="2" fill="#FFF8E7" opacity="0.5"/>
  <text x="300" y="288" text-anchor="middle" font-family="Georgia,serif" font-size="38" font-weight="bold" fill="#FFF8E7" letter-spacing="2">BREAKFAST</text>
  <text x="300" y="322" text-anchor="middle" font-family="Georgia,serif" font-size="16" fill="#FFF4CC" letter-spacing="6" font-style="italic" opacity="0.85">&amp; BREADS</text>
  <line x1="230" y1="348" x2="270" y2="348" stroke="#FFF8E7" stroke-width="0.8" opacity="0.5"/>
  <line x1="330" y1="348" x2="370" y2="348" stroke="#FFF8E7" stroke-width="0.8" opacity="0.5"/>
</svg>