<svg xmlns="http://www.w3.org/2000/svg" viewBox="0 0 600 400" width="600" height="400">
  <defs>
    <linearGradient id="bg" x1="0%" y1="0%" x2="100%" y2="100%">
      <stop offset="0%" style="stop-color:#BF360C"/>
      <stop offset="50%" style="stop-color:#9E2B0E"/>
      <stop offset="100%" style="stop-color:#7F2209"/>
    </linearGradient>
    <linearGradient id="accent" x1="0%" y1="0%" x2="0%" y2="100%">
      <stop offset="0%" style="stop-color:#FFECB3"/>
      <stop offset="100%" style="stop-color:#FFD54F"/>
    </linearGradient>
    <linearGradient id="pasta" x1="0%" y1="0%" x2="0%" y2="100%">
      <stop offset="0%" style="stop-color:#FFECB3;stop-opacity:0.9"/>
      <stop offset="100%" style="stop-color:#FFD54F;stop-opacity:0.75"/>
    </linearGradient>
  </defs>
  <rect width="600" height="400" fill="url(#bg)"/>
  <circle cx="300" cy="155" r="160" fill="#FFECB3" opacity="0.05"/>
  <circle cx="500" cy="320" r="100" fill="#FFECB3" opacity="0.03"/>
  <rect x="15" y="15" width="570" height="370" rx="8" fill="none" stroke="url(#accent)" stroke-width="2" opacity="0.6"/>
  <rect x="22" y="22" width="556" height="356" rx="5" fill="none" stroke="url(#accent)" stroke-width="0.5" opacity="0.4"/>
  <path d="M30,45 L30,30 L45,30" fill="none" stroke="#FFECB3" stroke-width="2.5" stroke-linecap="round"/>
  <path d="M570,45 L570,30 L555,30" fill="none" stroke="#FFECB3" stroke-width="2.5" stroke-linecap="round"/>
  <path d="M30,355 L30,370 L45,370" fill="none" stroke="#FFECB3" stroke-width="2.5" stroke-linecap="round"/>
  <path d="M570,355 L570,370 L555,370" fill="none" stroke="#FFECB3" stroke-width="2.5" stroke-linecap="round"/>
  <g transform="translate(300, 150)">
    <!-- Plate -->
    <ellipse cx="0" cy="40" rx="80" ry="18" fill="url(#pasta)" opacity="0.3"/>
    <ellipse cx="0" cy="40" rx="80" ry="18" fill="none" stroke="#FFECB3" stroke-width="1" opacity="0.3"/>
    <!-- Spaghetti noodles -->
    <path d="M-30,-30 Q-45,0 -25,30 Q-10,50 5,35" fill="none" stroke="url(#pasta)" stroke-width="3" opacity="0.8" stroke-linecap="round"/>
    <path d="M-15,-35 Q-30,0 -10,28 Q5,45 15,30" fill="none" stroke="url(#pasta)" stroke-width="3" opacity="0.75" stroke-linecap="round"/>
    <path d="M0,-30 Q-15,5 5,30 Q15,42 25,25" fill="none" stroke="url(#pasta)" stroke-width="3" opacity="0.7" stroke-linecap="round"/>
    <path d="M15,-35 Q0,0 20,25 Q30,38 35,20" fill="none" stroke="url(#pasta)" stroke-width="3" opacity="0.75" stroke-linecap="round"/>
    <path d="M30,-28 Q15,5 30,25 Q38,32 40,15" fill="none" stroke="url(#pasta)" stroke-width="3" opacity="0.7" stroke-linecap="round"/>
    <!-- Fork -->
    <g transform="translate(55, -25) rotate(25)">
      <rect x="-2" y="-50" width="4" height="70" rx="2" fill="url(#pasta)" opacity="0.7"/>
      <rect x="-10" y="-55" width="3" height="18" rx="1.5" fill="url(#pasta)" opacity="0.6"/>
      <rect x="-3" y="-55" width="3" height="18" rx="1.5" fill="url(#pasta)" opacity="0.6"/>
      <rect x="4" y="-55" width="3" height="18" rx="1.5" fill="url(#pasta)" opacity="0.6"/>
      <rect x="11" y="-55" width="3" height="18" rx="1.5" fill="url(#pasta)" opacity="0.6"/>
    </g>
    <!-- Basil leaf -->
    <g transform="translate(-45, 10)">
      <path d="M0,0 Q-12,-15 0,-25 Q12,-15 0,0 Z" fill="#4CAF50" opacity="0.5"/>
      <line x1="0" y1="0" x2="0" y2="-20" stroke="#388E3C" stroke-width="0.8" opacity="0.4"/>
    </g>
    <!-- Steam -->
    <path d="M-15,-45 Q-20,-60 -10,-70" fill="none" stroke="#FFECB3" stroke-width="1.5" opacity="0.25" stroke-linecap="round"/>
    <path d="M5,-50 Q0,-65 10,-75" fill="none" stroke="#FFECB3" stroke-width="1.5" opacity="0.2" stroke-linecap="round"/>
  </g>
  <line x1="170" y1="248" x2="430" y2="248" stroke="#FFECB3" stroke-width="1" opacity="0.5"/>
  <circle cx="300" cy="248" r="3" fill="#FFECB3" opacity="0.7"/>
  <circle cx="170" cy="248" r="2" fill="#FFECB3" opacity="0.5"/>
  <circle cx="430" cy="248" r="2" fill="#FFECB3" opacity="0.5"/>
  <text x="300" y="293" text-anchor="middle" font-family="Georgia,serif" font-size="42" font-weight="bold" fill="#FFECB3" letter-spacing="3">PASTA</text>
  <text x="300" y="325" text-anchor="middle" font-family="Georgia,serif" font-size="16" fill="#FFD54F" letter-spacing="6" font-style="italic" opacity="0.85">RECIPES</text>
  <line x1="230" y1="348" x2="270" y2="348" stroke="#FFECB3" stroke-width="0.8" opacity="0.5"/>
  <line x1="330" y1="348" x2="370" y2="348" stroke="#FFECB3" stroke-width="0.8" opacity="0.5"/>
</svg>